<?xml version="1.0" standalone="no"?>
<!DOCTYPE svg PUBLIC "-//W3C//DTD SVG 20010904//EN"
 "http://www.w3.org/TR/2001/REC-SVG-20010904/DTD/svg10.dtd">
<svg version="1.0" xmlns="http://www.w3.org/2000/svg"
 width="798.000000pt" height="798.000000pt" viewBox="0 0 798.000000 798.000000"
 preserveAspectRatio="xMidYMid meet">
<metadata>
Created by potrace 1.14, written by Peter Selinger 2001-2017
</metadata>
<g transform="translate(0.000000,798.000000) scale(0.100000,-0.100000)"
fill="#000000" stroke="none">
<path d="M2447 6829 c-21 -5 -47 -13 -57 -19 -18 -10 -18 -11 6 -35 29 -29 32
-83 7 -114 -10 -12 -35 -24 -56 -28 -33 -5 -42 -2 -68 22 -16 16 -29 35 -29
44 0 28 -50 -32 -82 -99 -26 -53 -33 -81 -36 -152 -7 -139 -8 -139 131 -2 129
127 250 235 361 320 l66 52 -44 11 c-52 13 -144 13 -199 0z"/>
<path d="M5185 6834 c-45 -12 -47 -13 -33 -28 7 -8 15 -12 17 -11 4 4 10 0 80
-62 29 -27 59 -51 65 -55 14 -8 75 -66 238 -225 l126 -124 7 41 c15 90 -15
208 -75 295 -30 44 -35 47 -44 30 -37 -65 -91 -82 -139 -45 -44 35 -45 91 -1
134 14 15 12 18 -23 33 -37 16 -178 27 -218 17z"/>
<path d="M6006 5938 c10 -14 21 -24 23 -22 3 3 -6 15 -18 27 l-24 22 19 -27z"/>
<path d="M5024 5790 c0 -69 1 -97 3 -62 2 34 2 90 0 125 -2 34 -3 6 -3 -63z"/>
<path d="M6141 5744 c0 -11 3 -14 6 -6 3 7 2 16 -1 19 -3 4 -6 -2 -5 -13z"/>
<path d="M1660 5715 c-19 -22 -8 -25 13 -3 9 10 13 18 8 18 -5 0 -14 -7 -21
-15z"/>
<path d="M6180 5703 c0 -6 8 -17 18 -24 16 -13 16 -13 2 6 -8 11 -16 22 -17
24 -2 2 -3 0 -3 -6z"/>
<path d="M4940 5650 c0 -13 -7 -20 -20 -20 -11 0 -20 -4 -20 -10 0 -5 14 -10
30 -10 27 0 30 3 30 30 0 17 -4 30 -10 30 -5 0 -10 -9 -10 -20z"/>
<path d="M1605 5640 c-3 -5 -1 -10 4 -10 6 0 11 5 11 10 0 6 -2 10 -4 10 -3 0
-8 -4 -11 -10z"/>
<path d="M6222 5643 c5 -19 -15 -53 -32 -53 -13 0 -17 -5 -13 -20 4 -15 0 -20
-16 -20 -14 0 -21 6 -21 20 0 18 -7 20 -60 20 l-60 0 0 -80 0 -80 -80 0 -80 0
0 -40 0 -40 -80 0 -80 0 0 -40 0 -40 -80 0 -80 0 0 -40 0 -40 -80 0 -80 0 0
-80 0 -80 -80 0 -80 0 0 -80 c0 -73 -2 -80 -20 -80 -17 0 -20 7 -20 40 l0 40
-50 0 c-29 0 -50 -5 -50 -11 0 -16 -26 -39 -44 -39 -9 0 -16 -7 -16 -15 0 -8
5 -15 10 -15 16 0 12 -70 -5 -76 -8 -4 -15 -12 -15 -20 0 -8 -7 -14 -15 -14
-8 0 -15 7 -15 15 0 8 -9 15 -20 15 -17 0 -20 -7 -20 -40 0 -33 -3 -40 -20
-40 -16 0 -20 -7 -20 -36 0 -27 -5 -37 -19 -41 -13 -3 -21 -17 -25 -44 -5 -30
-11 -39 -26 -39 -17 0 -19 5 -13 33 3 17 12 44 19 59 8 15 14 39 14 53 0 14 9
43 20 65 11 22 20 48 20 59 0 33 11 51 31 51 12 0 19 -7 19 -20 0 -13 7 -20
20 -20 18 0 20 7 20 75 0 63 -4 80 -21 98 -13 14 -18 29 -13 42 3 11 10 47 15
80 5 33 12 77 15 98 4 20 10 40 15 43 5 3 9 43 9 90 0 54 -4 83 -10 79 -6 -4
-10 23 -10 74 l0 81 -90 0 c-83 0 -90 1 -90 20 0 11 -4 20 -10 20 -5 0 -10 -9
-10 -20 0 -13 -7 -20 -20 -20 -18 0 -20 -7 -20 -80 l0 -80 -160 0 c-153 0
-160 -1 -160 -20 0 -13 -7 -20 -20 -20 -13 0 -20 -7 -20 -20 0 -18 -7 -20 -60
-20 l-60 0 0 -40 0 -40 -80 0 -80 0 0 -40 0 -40 -160 0 c-153 0 -160 -1 -160
-20 0 -13 -7 -20 -20 -20 -13 0 -20 -7 -20 -20 0 -18 -7 -20 -60 -20 -53 0
-60 -2 -60 -20 0 -13 -7 -20 -19 -20 -10 0 -21 -9 -24 -20 -4 -17 -14 -20 -61
-20 l-56 0 0 -40 0 -40 -80 0 -80 0 0 -40 0 -40 -99 0 c-93 0 -99 -1 -106 -22
l-8 -23 -4 23 c-3 17 -11 22 -34 22 -23 0 -29 -4 -29 -22 0 -30 -10 -44 -37
-52 -19 -6 -23 -15 -23 -47 l0 -39 -150 0 -150 0 0 80 0 80 -160 0 -160 0 0
80 0 80 -80 0 -80 0 0 40 0 40 -80 0 -80 0 0 40 0 40 -80 0 -80 0 0 80 0 80
-160 0 -160 0 0 -55 c0 -48 -2 -55 -20 -55 -11 0 -20 7 -20 15 0 8 -9 15 -20
15 -16 0 -20 7 -20 33 0 18 -7 42 -16 53 -8 10 -13 13 -9 7 3 -7 2 -13 -2 -13
-11 0 -73 -102 -73 -119 0 -8 8 -20 18 -27 16 -13 16 -13 0 -14 -10 0 -18 5
-18 10 0 24 -21 6 -42 -37 -13 -27 -29 -54 -35 -61 -7 -7 -13 -18 -13 -24 0
-5 -9 -23 -21 -39 -11 -16 -17 -33 -14 -39 3 -5 2 -10 -2 -10 -8 0 -82 -147
-146 -290 -74 -165 -194 -494 -242 -665 -128 -454 -183 -887 -157 -1235 51
-666 320 -1085 788 -1225 156 -47 434 -46 619 2 305 78 592 221 900 446 50 36
95 71 102 77 7 5 15 10 18 10 4 0 18 11 33 25 81 75 145 130 154 134 10 3 245
243 370 376 36 39 79 90 97 114 43 60 141 171 151 171 5 0 44 -43 87 -97 43
-53 97 -117 119 -142 23 -25 66 -73 95 -107 30 -33 82 -86 116 -118 35 -32 60
-63 56 -69 -3 -5 -2 -7 4 -4 6 4 32 -17 59 -46 27 -29 64 -63 82 -76 18 -12
29 -27 26 -33 -4 -6 -3 -8 3 -5 6 4 26 -10 45 -31 40 -43 153 -132 167 -132 5
0 13 -5 17 -12 5 -7 3 -8 -6 -3 -9 6 -11 4 -6 -4 5 -7 10 -10 13 -7 3 2 67
-37 143 -88 239 -162 456 -273 667 -341 183 -60 248 -70 458 -70 219 0 294 15
444 86 661 314 832 1344 429 2579 -82 251 -208 556 -223 542 -5 -4 -5 -1 -1 5
8 14 -151 343 -166 343 -5 0 -7 4 -4 8 2 4 -6 26 -19 47 -14 22 -33 58 -44 80
-10 22 -28 50 -40 62 -12 12 -21 29 -21 38 0 8 -5 15 -12 15 -6 0 -8 3 -5 6 3
4 2 15 -4 26 -6 11 -13 17 -16 14 -4 -3 -12 -1 -20 5 -10 9 -13 5 -14 -22 0
-19 -3 -28 -6 -21 -2 6 -13 12 -24 12 -27 0 -27 50 1 57 25 7 26 42 3 69 -10
11 -19 26 -21 33 -1 7 -11 22 -22 34 -11 11 -20 27 -20 34 0 7 -4 13 -10 13
-5 0 -10 6 -10 14 0 8 -5 18 -10 21 -6 4 -9 3 -8 -2z m24 -73 c8 0 14 -4 14
-10 0 -16 -30 -12 -48 7 -16 16 -16 16 1 10 10 -4 25 -7 33 -7z m14 -50 c0 -5
-4 -10 -10 -10 -5 0 -10 5 -10 10 0 6 5 10 10 10 6 0 10 -4 10 -10z m60 -46
c0 -8 -5 -12 -10 -9 -6 4 -8 11 -5 16 9 14 15 11 15 -7z m-300 -104 c0 -13 -7
-20 -20 -20 -13 0 -20 7 -20 20 0 13 7 20 20 20 13 0 20 -7 20 -20z m-480
-310 c0 -23 -4 -30 -20 -30 -16 0 -20 7 -20 30 0 23 4 30 20 30 16 0 20 -7 20
-30z m-2504 -267 c-11 -11 -19 6 -11 24 8 17 8 17 12 0 3 -10 2 -21 -1 -24z
m104 27 c0 -5 -9 -10 -20 -10 -11 0 -20 5 -20 10 0 6 9 10 20 10 11 0 20 -4
20 -10z m-133 -142 c-3 -7 -5 -2 -5 12 0 14 2 19 5 13 2 -7 2 -19 0 -25z
m1893 -108 c0 -11 -4 -20 -10 -20 -5 0 -10 -9 -10 -20 0 -11 -4 -20 -10 -20
-11 0 -14 63 -3 73 13 14 33 6 33 -13z"/>
<path d="M5012 5610 c0 -14 2 -19 5 -12 2 6 2 18 0 25 -3 6 -5 1 -5 -13z"/>
<path d="M6185 5610 c3 -5 8 -10 11 -10 2 0 4 5 4 10 0 6 -5 10 -11 10 -5 0
-7 -4 -4 -10z"/>
<path d="M1562 5578 c-16 -16 -15 -25 1 -25 7 0 13 9 13 19 0 21 1 21 -14 6z"/>
<path d="M4620 5530 c0 -11 5 -20 10 -20 6 0 10 9 10 20 0 11 -4 20 -10 20 -5
0 -10 -9 -10 -20z"/>
<path d="M1519 5500 c-6 -16 -15 -30 -21 -30 -5 0 -6 -5 -3 -10 5 -8 11 -8 20
0 10 8 14 7 17 -2 3 -7 7 1 10 19 3 20 1 30 -6 26 -5 -4 -7 1 -3 10 3 10 4 17
1 17 -3 0 -10 -13 -15 -30z"/>
<path d="M4140 5370 c0 -11 5 -20 10 -20 6 0 10 9 10 20 0 11 -4 20 -10 20 -5
0 -10 -9 -10 -20z"/>
<path d="M4587 1799 c-5 -20 -5 -20 14 -3 23 20 23 24 5 24 -7 0 -16 -9 -19
-21z"/>
</g>
</svg>
