<?xml version="1.0" standalone="no"?>
<!DOCTYPE svg PUBLIC "-//W3C//DTD SVG 20010904//EN"
 "http://www.w3.org/TR/2001/REC-SVG-20010904/DTD/svg10.dtd">
<svg version="1.0" xmlns="http://www.w3.org/2000/svg"
 width="500.000000pt" height="500.000000pt" viewBox="0 0 500.000000 500.000000"
 preserveAspectRatio="xMidYMid meet">
<metadata>
Created by potrace 1.14, written by Peter Selinger 2001-2017
</metadata>
<g transform="translate(0.000000,500.000000) scale(0.100000,-0.100000)"
fill="#000000" stroke="none">
<path d="M2368 4925 c-2 -2 -15 -6 -28 -9 -60 -11 -119 -27 -175 -46 -74 -26
-329 -149 -333 -161 -2 -5 -8 -9 -13 -9 -12 0 -134 -79 -196 -125 -31 -23 -50
-31 -70 -28 -171 25 -290 -29 -359 -163 -32 -63 -36 -80 -36 -146 0 -64 -3
-79 -23 -102 -13 -15 -39 -46 -57 -68 -18 -23 -38 -46 -43 -52 -13 -14 -83
-105 -110 -142 -11 -15 -29 -39 -41 -53 -51 -63 -284 -432 -284 -450 0 -5 -3
-11 -8 -13 -10 -4 -202 -376 -202 -392 0 -3 -13 -33 -29 -68 -27 -60 -109
-276 -116 -308 -2 -8 -13 -44 -24 -80 -24 -77 -69 -251 -77 -294 -8 -52 -14
-80 -19 -106 -3 -14 -8 -45 -11 -70 -3 -25 -8 -54 -10 -65 -25 -127 -22 -489
6 -635 11 -60 58 -226 71 -250 4 -8 17 -37 29 -65 63 -144 198 -288 335 -355
111 -54 185 -70 340 -72 98 -1 282 27 340 52 11 5 45 17 75 28 99 36 300 136
308 155 2 4 8 7 13 7 13 0 151 89 172 111 10 11 21 19 25 19 4 -1 25 -26 47
-57 81 -114 186 -205 295 -255 116 -54 207 -72 355 -71 250 3 462 117 624 337
l33 46 47 -33 c25 -17 48 -35 49 -39 2 -5 8 -8 13 -8 5 0 44 -22 87 -48 410
-255 791 -312 1089 -165 83 41 225 169 259 233 11 19 22 37 25 40 19 16 110
240 124 306 25 118 36 232 38 377 1 93 0 170 -2 173 -2 2 -5 23 -7 46 -5 64
-13 139 -19 178 -14 93 -28 176 -31 190 -2 8 -10 42 -18 76 -8 34 -17 72 -20
85 -2 13 -9 38 -16 54 -6 17 -10 30 -9 30 8 0 -86 283 -108 325 -7 14 -13 29
-13 34 0 30 -175 389 -262 537 -24 41 -52 91 -63 112 -11 20 -23 37 -27 37 -5
0 -8 5 -8 12 0 6 -11 26 -25 44 -14 18 -25 35 -25 38 0 8 -157 233 -214 306
-28 36 -88 109 -133 163 -74 88 -83 103 -84 140 -1 115 -22 175 -81 237 -70
75 -164 110 -272 100 -41 -4 -63 -2 -72 7 -7 7 -17 13 -22 13 -5 0 -17 9 -27
20 -10 11 -24 20 -31 20 -7 0 -14 3 -16 8 -11 26 -267 167 -409 226 -154 63
-220 78 -376 81 -78 2 -143 2 -145 0z"/>
<path d="M2064 378 c-12 -5 -27 -20 -33 -32 -13 -25 -34 -59 -41 -66 -10 -10
-64 -95 -65 -102 0 -3 -3 -10 -7 -14 -5 -4 -8 -22 -8 -41 0 -18 3 -33 8 -34 4
0 15 -2 24 -4 25 -5 55 21 85 73 15 26 30 49 33 52 3 3 12 21 20 40 7 19 22
47 32 62 18 26 16 55 -6 70 -13 9 -16 9 -42 -4z"/>
<path d="M2877 369 c-18 -25 -16 -31 38 -124 72 -122 78 -131 108 -153 23 -16
35 -19 49 -11 25 13 23 40 -9 96 -14 26 -31 57 -37 68 -6 11 -14 22 -17 25 -3
3 -13 19 -22 35 -41 75 -85 101 -110 64z"/>
<path d="M2466 357 c-14 -23 -17 -49 -20 -187 -2 -98 9 -125 54 -128 16 -1 30
1 31 5 0 5 3 17 5 28 10 42 6 266 -4 283 -15 23 -51 23 -66 -1z"/>
</g>
</svg>
